v 4 -0.5 -4
v -4 -0.5 4
v 4 -0.5 4
v -4 -0.5 -4
v 4 1 4
v -4 1 4
v 4 1 -4
v -4 1 -4
v -5 1 5
v -5 -1 -5
v -5 -1 5
v -5 1 -5
v 5 1 -5
v 5 -1 5
v 5 -1 -5
v 5 1 5

vn 0 1 0
vn 0 0 -1
vn -1 0 0
vn 0 0 1
vn 1 0 0

vt 0.998008 0.998008
vt 0.001992 0.00199199
vt 0.998008 0.00199199
vt 0.001992 0.998008
vt 0.187127 0.998008
vt 0.000374 0.00199199
vt 0.187127 0.00199199
vt 0.000374 0.998008
vt 0.187126 0.998008
vt 0.187126 0.00199199
vt 0.199602 0.00199199
vt 0.000398 0.998008
vt 0.000398 0.00199199
vt 0.199602 0.998008
vt 0.101594 0.898406
vt 0.101594 0.101594
vt 0.898406 0.898406
vt 0.898406 0.101594

o bathWithNormals

f 1/1/1 2/2/1 3/3/1
f 1/1/1 4/4/1 2/2/1
f 5/5/2 2/6/2 6/7/2
f 3/8/2 2/6/2 5/5/2
f 7/9/3 3/6/3 5/10/3
f 1/8/3 3/6/3 7/9/3
f 8/6/4 1/5/4 7/8/4
f 8/6/4 4/7/4 1/5/4
f 6/5/5 4/6/5 8/7/5
f 2/8/5 4/6/5 6/5/5
f 9/11/3 10/12/3 11/13/3
f 12/14/3 10/12/3 9/11/3
f 13/11/5 14/12/5 15/13/5
f 16/14/5 14/12/5 13/11/5
f 11/11/4 16/12/4 9/13/4
f 14/14/4 16/12/4 11/11/4
f 9/2/1 8/15/1 12/4/1
f 9/2/1 6/16/1 8/15/1
f 8/15/1 13/1/1 12/4/1
f 7/17/1 13/1/1 8/15/1
f 7/17/1 16/3/1 13/1/1
f 5/18/1 16/3/1 7/17/1
f 5/18/1 9/2/1 16/3/1
f 9/2/1 5/18/1 6/16/1
f 12/11/2 15/12/2 10/13/2
f 13/14/2 15/12/2 12/11/2